<mxfile host="app.diagrams.net" modified="2024-04-15T15:26:02.774Z" agent="Mozilla/5.0 (Windows NT 10.0; Win64; x64) AppleWebKit/537.36 (KHTML, like Gecko) Chrome/123.0.0.0 Safari/537.36" version="24.1.0" etag="QwkyIdbJcRHmzMNLICg2" type="github">
  <diagram name="Страница — 1" id="9HEh1p2hyFqdjeEg_21p">
    <mxGraphModel>
      <root>
        <mxCell id="0" />
        <mxCell id="1" parent="0" />
      </root>
    </mxGraphModel>
  </diagram>
</mxfile>
